<svg width="16" height="16" viewBox="0 0 16 16" fill="none" xmlns="http://www.w3.org/2000/svg">
<path d="M11.6864 9.7376C11.6864 10.4096 11.8776 10.6776 12.3776 10.6776C13.492 10.6776 14.2016 9.2576 14.2016 6.896C14.2016 3.2864 11.5712 1.5584 8.28716 1.5584C4.90876 1.5584 1.83596 3.824 1.83596 8.1056C1.83596 12.1952 4.52396 14.4224 8.65196 14.4224C10.0536 14.4224 10.9944 14.2688 12.4336 13.7888L12.7424 15.0744C11.3216 15.536 9.80316 15.6696 8.63276 15.6696C3.21836 15.6696 0.318359 12.6936 0.318359 8.1048C0.318359 3.4776 3.67916 0.328796 8.30636 0.328796C13.1256 0.328796 15.6784 3.2088 15.6784 6.7416C15.6784 9.7368 14.7384 12.0216 11.7816 12.0216C10.4368 12.0216 9.55436 11.484 9.43916 10.2928C9.09356 11.6176 8.17196 12.0216 6.92316 12.0216C5.25276 12.0216 3.85116 10.7344 3.85116 8.1432C3.85116 5.532 5.08076 3.9192 7.28876 3.9192C8.45996 3.9192 9.18956 4.38 9.51436 5.1096L10.072 4.092H11.6848V9.7376H11.6864ZM9.32556 7.2032C9.32556 6.148 8.53756 5.7056 7.88476 5.7056C7.17436 5.7056 6.38796 6.2808 6.38796 7.9712C6.38796 9.3152 6.98316 10.064 7.88476 10.064C8.51836 10.064 9.32556 9.6608 9.32556 8.5472V7.2032Z" fill="#484848"/>
</svg>
